<svg id="visual" viewBox="0 0 960 540" width="960" height="540" xmlns="http://www.w3.org/2000/svg" xmlns:xlink="http://www.w3.org/1999/xlink" version="1.1"><path d="M0 342L22.8 340.2C45.7 338.3 91.3 334.7 137 338.7C182.7 342.7 228.3 354.3 274 353.2C319.7 352 365.3 338 411.2 340.7C457 343.3 503 362.7 548.8 369C594.7 375.3 640.3 368.7 686 360.2C731.7 351.7 777.3 341.3 823 338C868.7 334.7 914.3 338.3 937.2 340.2L960 342L960 541L937.2 541C914.3 541 868.7 541 823 541C777.3 541 731.7 541 686 541C640.3 541 594.7 541 548.8 541C503 541 457 541 411.2 541C365.3 541 319.7 541 274 541C228.3 541 182.7 541 137 541C91.3 541 45.7 541 22.8 541L0 541Z" fill="#0066ff"></path><path d="M0 396L22.8 402C45.7 408 91.3 420 137 419.7C182.7 419.3 228.3 406.7 274 395.5C319.7 384.3 365.3 374.7 411.2 373.2C457 371.7 503 378.3 548.8 383.3C594.7 388.3 640.3 391.7 686 397.8C731.7 404 777.3 413 823 418.5C868.7 424 914.3 426 937.2 427L960 428L960 541L937.2 541C914.3 541 868.7 541 823 541C777.3 541 731.7 541 686 541C640.3 541 594.7 541 548.8 541C503 541 457 541 411.2 541C365.3 541 319.7 541 274 541C228.3 541 182.7 541 137 541C91.3 541 45.7 541 22.8 541L0 541Z" fill="#6a7ef3"></path><path d="M0 440L22.8 442.8C45.7 445.7 91.3 451.3 137 446.7C182.7 442 228.3 427 274 423.2C319.7 419.3 365.3 426.7 411.2 433C457 439.3 503 444.7 548.8 443C594.7 441.3 640.3 432.7 686 430C731.7 427.3 777.3 430.7 823 427.3C868.7 424 914.3 414 937.2 409L960 404L960 541L937.2 541C914.3 541 868.7 541 823 541C777.3 541 731.7 541 686 541C640.3 541 594.7 541 548.8 541C503 541 457 541 411.2 541C365.3 541 319.7 541 274 541C228.3 541 182.7 541 137 541C91.3 541 45.7 541 22.8 541L0 541Z" fill="#9397e7"></path><path d="M0 480L22.8 481C45.7 482 91.3 484 137 482C182.7 480 228.3 474 274 467C319.7 460 365.3 452 411.2 448.2C457 444.3 503 444.7 548.8 448C594.7 451.3 640.3 457.7 686 460.8C731.7 464 777.3 464 823 464C868.7 464 914.3 464 937.2 464L960 464L960 541L937.2 541C914.3 541 868.7 541 823 541C777.3 541 731.7 541 686 541C640.3 541 594.7 541 548.8 541C503 541 457 541 411.2 541C365.3 541 319.7 541 274 541C228.3 541 182.7 541 137 541C91.3 541 45.7 541 22.8 541L0 541Z" fill="#b2b1da"></path><path d="M0 514L22.8 512.8C45.7 511.7 91.3 509.3 137 505.2C182.7 501 228.3 495 274 491.2C319.7 487.3 365.3 485.7 411.2 488C457 490.3 503 496.7 548.8 496.8C594.7 497 640.3 491 686 493C731.7 495 777.3 505 823 503.7C868.7 502.3 914.3 489.7 937.2 483.3L960 477L960 541L937.2 541C914.3 541 868.7 541 823 541C777.3 541 731.7 541 686 541C640.3 541 594.7 541 548.8 541C503 541 457 541 411.2 541C365.3 541 319.7 541 274 541C228.3 541 182.7 541 137 541C91.3 541 45.7 541 22.8 541L0 541Z" fill="#cccccc"></path></svg>